<?xml version="1.0" encoding="UTF-8" standalone="no"?>
<!-- Generator: Adobe Illustrator 18.1.0, SVG Export Plug-In . SVG Version: 6.00 Build 0)  -->

<svg
   xmlns:dc="http://purl.org/dc/elements/1.1/"
   xmlns:cc="http://creativecommons.org/ns#"
   xmlns:rdf="http://www.w3.org/1999/02/22-rdf-syntax-ns#"
   xmlns:svg="http://www.w3.org/2000/svg"
   xmlns="http://www.w3.org/2000/svg"
   xmlns:sodipodi="http://sodipodi.sourceforge.net/DTD/sodipodi-0.dtd"
   xmlns:inkscape="http://www.inkscape.org/namespaces/inkscape"
   version="1.1"
   id="Layer_1"
   x="0px"
   y="0px"
   viewBox="0 0 74.999016 74.998978"
   enable-background="new 0 0 1000 1000"
   xml:space="preserve"
   inkscape:version="0.48.5 r10040"
   width="100%"
   height="100%"
   sodipodi:docname="rainbow.svg"><metadata
     id="metadata4236"><rdf:RDF><cc:Work
         rdf:about=""><dc:format>image/svg+xml</dc:format><dc:type
           rdf:resource="http://purl.org/dc/dcmitype/StillImage" /><dc:title></dc:title></cc:Work></rdf:RDF></metadata><defs
     id="defs4234" /><sodipodi:namedview
     pagecolor="#ffffff"
     bordercolor="#666666"
     borderopacity="1"
     objecttolerance="10"
     gridtolerance="10"
     guidetolerance="10"
     inkscape:pageopacity="0"
     inkscape:pageshadow="2"
     inkscape:window-width="1591"
     inkscape:window-height="875"
     id="namedview4232"
     showgrid="false"
     fit-margin-top="0"
     fit-margin-left="0"
     fit-margin-right="0"
     fit-margin-bottom="0"
     inkscape:zoom="1.888"
     inkscape:cx="110.23547"
     inkscape:cy="19.193206"
     inkscape:window-x="191"
     inkscape:window-y="112"
     inkscape:window-maximized="0"
     inkscape:current-layer="Layer_1" /><rect
     style="color:#000000;fill:#34a0f2;fill-opacity:1;fill-rule:nonzero;stroke:none;stroke-width:1.39999998;marker:none;visibility:visible;display:inline;overflow:visible;enable-background:accumulate"
     id="rect4750"
     width="74.999016"
     height="74.998978"
     x="0"
     y="0"
     ry="8.6141186" /><path
     d="m 47.702026,53.423401 c 0.6,-17.1 10.2,-32 24.2,-40 h -16.5 c -10.5,10.2 -17.2,24.3 -17.6,40 h 9.9 z"
     id="path4221"
     inkscape:connector-curvature="0"
     style="fill:#bce8de" /><path
     d="m 27.702026,53.423401 h 10 c 0.4,-15.7 7.1,-29.8 17.7,-40 h -13.4 c -8.6,11.1 -13.9,24.9 -14.3,40 z"
     id="path4223"
     inkscape:connector-curvature="0"
     style="fill:#fdbf6c" /><path
     d="m 17.702026,53.423401 h 10 c 0.4,-15 5.6,-28.9 14.3,-40 h -12.2 c -7.4,11.6 -11.7,25.3 -12.1,40 z"
     id="path4225"
     inkscape:connector-curvature="0"
     style="fill:#fb9175" /><g
     id="Ellipse_3"
     transform="translate(-407.29797,-444.5766)"><g
       id="g4228"><path
         d="m 463.2,490.6 c -0.2,0 -0.4,0 -0.6,0.1 0.4,-0.9 0.6,-1.9 0.6,-2.9 0,-4.1 -3.4,-7.4 -7.6,-7.4 -0.9,0 -1.7,0.2 -2.5,0.4 -0.3,-4.9 -4.4,-8.7 -9.4,-8.7 -4.6,0 -8.5,3.3 -9.3,7.5 -1.7,-1.6 -4,-2.6 -6.5,-2.6 -5.1,0 -9.2,4.1 -9.2,9.1 0,1.7 0.5,3.3 1.3,4.6 -1.7,0.4 -3,1.8 -3,3.6 0,2.1 1.7,3.7 3.8,3.7 h 42.4 c 2.1,0 3.8,-1.7 3.8,-3.7 0,-2 -1.7,-3.7 -3.8,-3.7 z"
         id="path4230"
         inkscape:connector-curvature="0"
         style="fill:#ffffff" /></g></g></svg>