<!-- Generated by IcoMoon.io -->
<svg version="1.1" xmlns="http://www.w3.org/2000/svg" width="384" height="448" viewBox="0 0 384 448">
<title></title>
<g id="icomoon-ignore">
</g>
<path fill="#000" d="M220 300v40c0 4.5-3.5 8-8 8h-40c-4.5 0-8-3.5-8-8v-40c0-4.5 3.5-8 8-8h40c4.5 0 8 3.5 8 8zM284 176c0 35.5-24.75 49.5-43 59.75-13 7.5-21 12.25-21 20.25v8c0 4.5-3.5 8-8 8h-40c-4.5 0-8-3.5-8-8v-17c0-30.75 22-40.5 39.75-48.5 15-7 24.25-11.75 24.25-23 0-14.5-18.25-25.25-34.75-25.25-8.75 0-18 2.75-23.75 6.75-5.5 3.75-10.75 9.25-20 20.75-1.5 2-3.75 3-6.25 3-1.75 0-3.5-0.5-4.75-1.5l-27-20.5c-3.25-2.5-4-7.25-1.75-10.75 20.5-32.25 49.25-48 87.25-48v0c41 0 87 32.5 87 76zM192 64c-88.25 0-160 71.75-160 160s71.75 160 160 160 160-71.75 160-160-71.75-160-160-160zM384 224c0 106-86 192-192 192s-192-86-192-192 86-192 192-192v0c106 0 192 86 192 192z"></path>
</svg>
