<?xml version="1.0" encoding="utf-8"?>
<!-- Generator: Adobe Illustrator 18.1.0, SVG Export Plug-In . SVG Version: 6.00 Build 0)  -->
<!DOCTYPE svg PUBLIC "-//W3C//DTD SVG 1.1//EN" "http://www.w3.org/Graphics/SVG/1.1/DTD/svg11.dtd">
<svg version="1.1" id="Layer_1" xmlns="http://www.w3.org/2000/svg" xmlns:xlink="http://www.w3.org/1999/xlink" x="0px" y="0px"
	 viewBox="0 0 1000 1000" enable-background="new 0 0 1000 1000" xml:space="preserve">
<path fill="#BCE8DE" d="M457,498c0.6-17.1,10.2-32,24.2-40h-16.5c-10.5,10.2-17.2,24.3-17.6,40H457z"/>
<path fill="#FDBF6C" d="M437,498h10c0.4-15.7,7.1-29.8,17.7-40h-13.4C442.7,469.1,437.4,482.9,437,498z"/>
<path fill="#FB9175" d="M427,498h10c0.4-15,5.6-28.9,14.3-40h-12.2C431.7,469.6,427.4,483.3,427,498z"/>
<g id="Ellipse_3">
	<g>
		<path fill="#FFFFFF" d="M463.2,490.6c-0.2,0-0.4,0-0.6,0.1c0.4-0.9,0.6-1.9,0.6-2.9c0-4.1-3.4-7.4-7.6-7.4c-0.9,0-1.7,0.2-2.5,0.4
			c-0.3-4.9-4.4-8.7-9.4-8.7c-4.6,0-8.5,3.3-9.3,7.5c-1.7-1.6-4-2.6-6.5-2.6c-5.1,0-9.2,4.1-9.2,9.1c0,1.7,0.5,3.3,1.3,4.6
			c-1.7,0.4-3,1.8-3,3.6c0,2.1,1.7,3.7,3.8,3.7h42.4c2.1,0,3.8-1.7,3.8-3.7S465.3,490.6,463.2,490.6z"/>
	</g>
</g>
</svg>
