<?xml version="1.0" encoding="UTF-8" standalone="no"?>
<svg id="svg4317" xmlns:rdf="http://www.w3.org/1999/02/22-rdf-syntax-ns#" xmlns="http://www.w3.org/2000/svg" height="512" width="512" version="1.1" xmlns:cc="http://creativecommons.org/ns#" xmlns:dc="http://purl.org/dc/elements/1.1/" viewBox="0 0 512 512">
 <path id="path4320" d="m512 97.209c-18.838 8.354-39.082 14.001-60.33 16.54 21.686-13 38.343-33.585 46.186-58.115-20.298 12.039-42.778 20.78-66.705 25.49-19.16-20.415-46.461-33.17-76.673-33.17-58.011 0-105.04 47.029-105.04 105.04 0 8.233 0.929 16.25 2.72 23.939-87.3-4.382-164.7-46.2-216.51-109.75-9.042 15.514-14.223 33.558-14.223 52.809 0 36.444 18.544 68.596 46.73 87.433-17.219-0.546-33.416-5.271-47.577-13.139-0.01 0.438-0.01 0.878-0.01 1.321 0 50.894 36.209 93.348 84.261 103-8.813 2.4-18.094 3.686-27.674 3.686-6.769 0-13.349-0.66-19.764-1.886 13.368 41.73 52.16 72.103 98.126 72.948-35.95 28.175-81.243 44.967-130.46 44.967-8.479 0-16.84-0.497-25.058-1.47 46.486 29.805 101.7 47.197 161.02 47.197 193.21 0 298.87-160.06 298.87-298.87 0-4.554-0.103-9.084-0.305-13.59 20.528-14.81 38.336-33.31 52.418-54.374z"/>
</svg>
